<svg width="81" height="80" fill="none" xmlns="http://www.w3.org/2000/svg"><path fill="#fff" d="M.5 16h64v64H.5z"/><path stroke="#000" stroke-width="3" d="M2 17.5h61v61H2z"/><path fill="#fff" d="M8.5 8h64v64h-64z"/><path stroke="#000" stroke-width="3" d="M10 9.5h61v61H10z"/><path fill="#fff" d="M16.5 0h64v64h-64z"/><path d="m47.938 23.018-1.147.966 1.148 1.362 1.147-1.362-1.148-.966Zm0 21.894-1.095 1.025 1.095 1.17 1.096-1.17-1.096-1.025ZM42.62 21.711c1.996 0 3.432 1.395 4.171 2.273l2.295-1.933c-.837-.993-3.048-3.34-6.466-3.34v3Zm-4.41 4.114c0-1.175.551-2.186 1.42-2.935.888-.766 2.023-1.18 2.99-1.18v-3c-1.74 0-3.56.71-4.95 1.909-1.41 1.215-2.46 3.012-2.46 5.206h3Zm10.824 18.063C39.674 33.883 38.21 28.119 38.21 25.825h-3c0 3.43 2.083 9.906 11.633 20.112l2.19-2.05Zm0 2.05c9.55-10.207 11.633-16.683 11.633-20.113h-3c0 2.294-1.463 8.058-10.824 18.063l2.19 2.05Zm11.633-20.113c0-2.194-1.05-3.99-2.46-5.206-1.39-1.2-3.21-1.908-4.95-1.908v3c.967 0 2.102.413 2.99 1.18.869.748 1.42 1.759 1.42 2.934h3Zm-7.41-7.114c-3.418 0-5.63 2.347-6.466 3.34l2.295 1.933c.74-.878 2.175-2.273 4.171-2.273v-3Z" fill="#000"/><path stroke="#000" stroke-width="3" d="M18 1.5h61v61H18z"/></svg>